<?xml version="1.0" encoding="UTF-8"?>
<svg version="1.1" xmlns="http://www.w3.org/2000/svg" width="197" height="168">
<path d="M0 0 C6.286862 6.41949622 9.08533732 13.35356701 9.5625 22.25 C9.34446714 30.42149242 6.48431909 37.10779435 1.03125 43.19921875 C-2.64439806 46.57091899 -6.41763907 49.05249661 -11 51 C-9.4470724 51.87144869 -7.88214564 52.72153657 -6.3125 53.5625 C-5.00732422 54.27599609 -5.00732422 54.27599609 -3.67578125 55.00390625 C-0.53686078 56.17240949 0.84706823 56.02036627 4 55 C5.3278652 54.34266713 6.64060494 53.65400242 7.9375 52.9375 C14.74313757 49.83576535 22.41922829 49.84455161 29.6171875 51.66015625 C38.49104668 55.20662938 44.15893859 61.18425916 48.08984375 69.765625 C50.96321553 76.81956775 51.04099804 84.00006523 48.4375 91.1875 C44.29260255 100.28605539 38.24971819 105.38997598 29 109 C20.97691418 111.46864179 13.49086967 110.32859275 5.99609375 106.875 C4.05795244 105.86617437 4.05795244 105.86617437 2 106 C2.33 106.66 2.66 107.32 3 108 C3.81608096 116.77869946 3.69493911 123.9712462 -2 131 C-6.99170171 136.44424609 -12.98787481 139.11829418 -20.3125 139.5 C-27.19381311 139.28259588 -32.78744394 136.91990085 -37.88671875 132.28515625 C-42.55917629 127.11490663 -44.28311408 122.59096392 -44.25 115.5625 C-44.25773437 113.92474609 -44.25773437 113.92474609 -44.265625 112.25390625 C-43.99044769 108.88298422 -43.19775781 106.15124375 -42 103 C-42.66 103.598125 -43.32 104.19625 -44 104.8125 C-50.82960125 109.79241758 -57.62758381 111.00377742 -66 110 C-73.64289598 108.25067231 -79.9324633 105.06725482 -85 99 C-89.54084576 91.75276487 -91.86568288 84.62591152 -91 76 C-88.79828323 66.4484346 -83.870499 59.75040149 -76 54 C-69.43158935 49.9622757 -61.4460693 50.0733416 -54 51 C-50.94647827 52.11686694 -48.22603379 53.3984492 -45.40234375 55.00390625 C-41.22730206 56.7350211 -37.71429266 55.00726663 -33.6875 53.4375 C-32.470625 52.963125 -31.25375 52.48875 -30 52 C-31.98564431 50.50190228 -33.9763951 49.01687381 -36 47.5703125 C-42.87608758 42.60126483 -47.60844977 37.28501329 -50 29 C-51.25920926 18.93891798 -49.55020469 10.26697822 -43.3125 2.1875 C-31.32972152 -10.54607914 -13.32774864 -10.56867085 0 0 Z M-28.5 56.3125 C-29.6446875 56.74175781 -30.789375 57.17101562 -31.96875 57.61328125 C-34.66254018 58.84562083 -36.15017508 59.74717751 -38 62 C-37.38125 63.155 -36.7625 64.31 -36.125 65.5 C-31.67602853 74.52460405 -31.3895185 82.27205186 -34 92 C-32.0509375 91.7525 -32.0509375 91.7525 -30.0625 91.5 C-22.22671286 90.64161956 -14.8077542 91.00853915 -7 92 C-7.495 90.2365625 -7.495 90.2365625 -8 88.4375 C-10.41649113 78.51076307 -7.86143912 69.79688984 -3 61 C-15.25067465 54.42551497 -15.25067465 54.42551497 -28.5 56.3125 Z " fill="#63E5FD" transform="translate(120,17)"/>
<path d="M0 0 C6.286862 6.41949622 9.08533732 13.35356701 9.5625 22.25 C9.34409479 30.43544745 6.48671546 37.17930796 0.9609375 43.234375 C-5.94654274 49.49508742 -12.30615122 51.31587367 -21.57421875 51.14453125 C-31.40200306 50.55897888 -37.39507096 47.73284374 -44.25 40.6875 C-49.51290061 32.60518836 -51.15531099 25.70225453 -50 16 C-47.8581263 7.3482742 -43.37448182 0.81328791 -35.75 -3.8125 C-23.34236287 -10.07856424 -10.91638336 -8.65650049 0 0 Z " fill="#31DEFC" transform="translate(120,17)"/>
<path d="M0 0 C4.76066531 3.43784308 8.06033619 7.44993981 10.48828125 12.796875 C10.94139509 16.10929338 10.95302545 19.0370551 10.671875 22.36328125 C10.27834075 24.80468734 10.27834075 24.80468734 11.48828125 26.796875 C11.96262058 32.60753179 10.83362662 37.51446868 8.48828125 42.796875 C6.12875031 45.15640594 4.70932508 45.28828913 1.48828125 45.796875 C1.48828125 46.786875 1.48828125 47.776875 1.48828125 48.796875 C0.82828125 48.796875 0.16828125 48.796875 -0.51171875 48.796875 C-0.60710937 49.42078125 -0.7025 50.0446875 -0.80078125 50.6875 C-1.51171875 52.796875 -1.51171875 52.796875 -4.88671875 54.546875 C-14.09404153 57.51750855 -22.99468114 56.15232519 -31.51171875 51.796875 C-38.70565435 47.17657906 -43.14014482 40.54525493 -45.125 32.2265625 C-46.46907956 23.78194144 -44.84683585 17.12116593 -40.82421875 9.671875 C-30.54002019 -3.11388537 -15.3482616 -8.09478686 0 0 Z " fill="#63E5FD" transform="translate(74.51171875,71.203125)"/>
<path d="M0 0 C5.12603596 4.29074708 9.55980553 8.27919832 10.37109375 15.13671875 C10.53620013 23.96505406 9.63347209 29.94646039 3.578125 36.55078125 C-2.2295956 41.84330083 -8.47238562 43.6529157 -16.15625 43.41015625 C-23.57063162 42.34077429 -29.18723811 38.58317163 -33.84375 32.84375 C-36.6238985 28.41054022 -37.27434066 24.70890112 -37.25 19.5 C-37.25515625 18.3965625 -37.2603125 17.293125 -37.265625 16.15625 C-37.00303615 13.03607666 -36.32438782 10.81695186 -35 8 C-34.34 8 -33.68 8 -33 8 C-32.79375 7.46375 -32.5875 6.9275 -32.375 6.375 C-29.67678277 1.71444297 -26.43539692 -1.91150479 -21.125 -3.375 C-13.09352641 -4.83803883 -6.99038464 -4.37658865 0 0 Z " fill="#1CDAFC" transform="translate(113,113)"/>
<path d="M0 0 C3.10398978 -0.08710289 6.20766548 -0.14042309 9.3125 -0.1875 C10.19357422 -0.21263672 11.07464844 -0.23777344 11.98242188 -0.26367188 C12.82998047 -0.27333984 13.67753906 -0.28300781 14.55078125 -0.29296875 C15.72120972 -0.31653442 15.72120972 -0.31653442 16.9152832 -0.34057617 C19.54443107 0.08894266 20.24523138 1.05627009 22 3 C26.13566445 5.06783223 29.34722438 6.4229796 34 6 C33.57847656 6.44730469 33.15695313 6.89460938 32.72265625 7.35546875 C28.4622021 11.98399766 28.4622021 11.98399766 27 18 C26.01 18 25.02 18 24 18 C23.67 19.32 23.34 20.64 23 22 C22.505 21.01 22.505 21.01 22 20 C22.77734375 17.8359375 22.77734375 17.8359375 23.9375 15.375 C24.31777344 14.55773437 24.69804688 13.74046875 25.08984375 12.8984375 C25.39019531 12.27195312 25.69054687 11.64546875 26 11 C23.61009899 9.96287315 21.21473126 8.94531981 18.8125 7.9375 C18.13896484 7.64294922 17.46542969 7.34839844 16.77148438 7.04492188 C11.06731568 4.67977876 8.46841703 5.05537366 2.88671875 7.19140625 C1.30310547 7.87009766 1.30310547 7.87009766 -0.3125 8.5625 C-1.38113281 9.01753906 -2.44976562 9.47257812 -3.55078125 9.94140625 C-4.76314453 10.46541016 -4.76314453 10.46541016 -6 11 C-6 11.99 -6 12.98 -6 14 C-6 14.99 -6 15.98 -6 17 C-8.31 14.03 -10.62 11.06 -13 8 C-10.25906335 6.1727089 -7.86174676 5.06301822 -4.8125 3.875 C-3.91144531 3.52179688 -3.01039062 3.16859375 -2.08203125 2.8046875 C-1.39496094 2.53914063 -0.70789063 2.27359375 0 2 C0 1.34 0 0.68 0 0 Z " fill="#A4EFFA" transform="translate(90,67)"/>
<path d="M0 0 C4.47744532 6.71616799 4.35232047 13.30953108 3 21 C2.67 21.99 2.34 22.98 2 24 C3.7015625 23.7525 3.7015625 23.7525 5.4375 23.5 C9.98933098 22.94002079 14.42032076 22.84935266 19 23 C20.3303125 23.00773437 20.3303125 23.00773437 21.6875 23.015625 C24.26581597 23.12055646 26.52182965 23.27546975 29 24 C30.9375 26.9375 30.9375 26.9375 32 30 C35.22791555 32.1519437 36.28400809 32.20086443 40 32 C40.495 35.465 40.495 35.465 41 39 C37.27304978 37.95179525 35.02125631 36.21335339 32.25 33.625 C27.25275047 29.12559676 21.85771143 25.88905769 15 25.5625 C9.38596009 25.93081673 4.09438349 26.94612683 -0.01953125 30.98046875 C-1.21768056 32.40563582 -2.37892489 33.86305148 -3.4921875 35.35546875 C-3.98976563 35.89816406 -4.48734375 36.44085938 -5 37 C-5.99 37 -6.98 37 -8 37 C-10.15028304 37.94978897 -10.15028304 37.94978897 -12 39 C-11.67 38.01 -11.34 37.02 -11 36 C-10.34 36 -9.68 36 -9 36 C-9.33 34.68 -9.66 33.36 -10 32 C-8.906875 31.855625 -7.81375 31.71125 -6.6875 31.5625 C-4.14081128 30.84076635 -3.24495994 30.40882969 -1.8671875 28.109375 C0.05110719 22.63385423 0.79241187 17.34573901 -0.5625 11.625 C-1.21953392 7.68279647 -0.55701617 3.93339113 0 0 Z " fill="#88EBF9" transform="translate(85,84)"/>
<path d="M0 0 C1.32837891 0.00773437 1.32837891 0.00773437 2.68359375 0.015625 C5.26341416 0.12046531 7.52043178 0.27506106 10 1 C11.9375 3.9375 11.9375 3.9375 13 7 C16.22791555 9.1519437 17.28400809 9.20086443 21 9 C21.495 12.465 21.495 12.465 22 16 C18.27304978 14.95179525 16.02125631 13.21335339 13.25 10.625 C3.27871545 1.82896814 -6.2727422 2.53389493 -19 3 C-18.67 2.34 -18.34 1.68 -18 1 C-12.20348399 -0.37149709 -5.92208602 -0.19773242 0 0 Z " fill="#97F2FE" transform="translate(104,107)"/>
<path d="M0 0 C0.66 0.33 1.32 0.66 2 1 C1.21448343 2.31618998 0.4213763 3.62785228 -0.375 4.9375 C-0.81585938 5.66839844 -1.25671875 6.39929688 -1.7109375 7.15234375 C-3 9 -3 9 -5 10 C-5.72159424 11.64363134 -6.39351421 13.31050386 -7 15 C-7.66 15 -8.32 15 -9 15 C-8.979375 15.804375 -8.95875 16.60875 -8.9375 17.4375 C-9 20 -9 20 -10 21 C-10.07319621 23.69654854 -10.09242537 26.36691458 -10.0625 29.0625 C-10.05798828 29.82111328 -10.05347656 30.57972656 -10.04882812 31.36132812 C-10.0370068 33.24091871 -10.01907078 35.12046899 -10 37 C-13.27761189 32.08358217 -13.58455154 26.8246386 -13 21 C-10.96098595 12.15427728 -6.47117793 6.17703348 0 0 Z " fill="#99EAF6" transform="translate(42,72)"/>
<path d="M0 0 C3.73527008 3.73527008 4.17303134 8.1502913 4.375 13.25 C4.24479422 20.59160264 1.84684514 27.41531492 -3 33 C-3.66 33 -4.32 33 -5 33 C-4.5939225 30.6447505 -4.35911431 29.32788697 -2.5625 27.6875 C0.89622958 23.95207205 1.14981296 19.023101 0.9765625 14.16015625 C0.87154232 12.46014212 0.75415219 10.76085125 0.625 9.0625 C0.56828125 8.18787109 0.5115625 7.31324219 0.453125 6.41210938 C0.31292119 4.27400131 0.15797033 2.13686887 0 0 Z " fill="#9DEBF6" transform="translate(166,84)"/>
<path d="M0 0 C0 0.33 0 0.66 0 1 C-0.94101563 1.03738281 -1.88203125 1.07476562 -2.8515625 1.11328125 C-4.71941406 1.21189453 -4.71941406 1.21189453 -6.625 1.3125 C-8.46964844 1.39951172 -8.46964844 1.39951172 -10.3515625 1.48828125 C-14.1749789 2.02454201 -16.71476687 3.0022231 -20 5 C-20.33 5.66 -20.66 6.32 -21 7 C-22.66279327 8.0064275 -24.32983484 9.00585407 -26 10 C-26.556875 10.556875 -27.11375 11.11375 -27.6875 11.6875 C-28.120625 12.120625 -28.55375 12.55375 -29 13 C-29.66 13 -30.32 13 -31 13 C-30.63106657 10.25416762 -30.13498011 9.13469594 -28.14453125 7.1484375 C-19.12776375 0.29146523 -11.21777151 -1.77122708 0 0 Z " fill="#82E8F5" transform="translate(107,10)"/>
<path d="M0 0 C4.29 0 8.58 0 13 0 C12.030625 1.051875 11.06125 2.10375 10.0625 3.1875 C7.58173738 6.05934755 6.23631973 8.1007244 6 12 C5.01 12 4.02 12 3 12 C2.67 13.32 2.34 14.64 2 16 C1.67 15.34 1.34 14.68 1 14 C1.77734375 11.8359375 1.77734375 11.8359375 2.9375 9.375 C3.50791016 8.14910156 3.50791016 8.14910156 4.08984375 6.8984375 C4.39019531 6.27195312 4.69054687 5.64546875 5 5 C3.35 3.35 1.7 1.7 0 0 Z " fill="#A1EFFA" transform="translate(111,73)"/>
<path d="M0 0 C0.66 0 1.32 0 2 0 C1.6875 1.9375 1.6875 1.9375 1 4 C-4.80520742 5.93506914 -11.53040939 5.9525628 -17.1875 3.5 C-18.115625 3.005 -19.04375 2.51 -20 2 C-16.79520586 1.0498728 -13.89930167 0.86574396 -10.5625 0.875 C-9.63566406 0.87242187 -8.70882812 0.86984375 -7.75390625 0.8671875 C-5.07134019 0.99655948 -2.61431282 1.40217166 0 2 C0 1.34 0 0.68 0 0 Z " fill="#57DDF2" transform="translate(107,151)"/>
<path d="M0 0 C-1.875 3.875 -1.875 3.875 -3 5 C-4.68183948 5.23287008 -6.3712416 5.41264166 -8.0625 5.5625 C-8.98160156 5.64628906 -9.90070313 5.73007813 -10.84765625 5.81640625 C-11.55792969 5.87699219 -12.26820312 5.93757813 -13 6 C-13.5625 4.0625 -13.5625 4.0625 -14 2 C-11.01784419 -0.98215581 -3.98171838 -0.09711508 0 0 Z " fill="#4DDEF8" transform="translate(84,111)"/>
<path d="M0 0 C-0.165 0.763125 -0.33 1.52625 -0.5 2.3125 C-1.09145396 5.03596236 -1.09145396 5.03596236 -1 8 C-2.98 8.66 -4.96 9.32 -7 10 C-7 9.01 -7 8.02 -7 7 C-7.99 6.67 -8.98 6.34 -10 6 C-7.82304683 0.97626191 -5.41372848 -0.29263397 0 0 Z " fill="#5AE2F8" transform="translate(129,73)"/>
<path d="M0 0 C3.29654111 4.94481167 2.75377184 10.2336454 2 16 C0.37958678 20.24887421 -1.64726374 24.11378386 -4 28 C-5 26 -5 26 -4.2578125 23.671875 C-3.88398437 22.70765625 -3.51015625 21.7434375 -3.125 20.75 C-0.70323801 13.86885559 -0.21451829 7.25071804 0 0 Z " fill="#77E3F4" transform="translate(127,30)"/>
<path d="M0 0 C0.78688445 2.77723925 1.11949924 5.22610077 1.09765625 8.109375 C1.09443359 8.86347656 1.09121094 9.61757813 1.08789062 10.39453125 C1.07951172 11.17183594 1.07113281 11.94914062 1.0625 12.75 C1.05798828 13.54277344 1.05347656 14.33554687 1.04882812 15.15234375 C1.03708565 17.10159508 1.01915146 19.05080738 1 21 C1.99 21 2.98 21 4 21 C3.01 23.475 3.01 23.475 2 26 C0 25 0 25 -1.109375 22.34375 C-2.02333038 18.91240875 -2.26687304 16.0433375 -2.25 12.5 C-2.25515625 11.4171875 -2.2603125 10.334375 -2.265625 9.21875 C-1.98879794 5.86425744 -1.19052385 3.13693587 0 0 Z " fill="#80E6F5" transform="translate(72,27)"/>
<path d="M0 0 C5.93590593 5.78370321 5.93590593 5.78370321 6.16796875 10.1875 C6.17441406 11.445625 6.18085937 12.70375 6.1875 14 C6.20167969 15.258125 6.21585937 16.51625 6.23046875 17.8125 C6 21 6 21 4 23 C3.93941406 22.13117188 3.87882812 21.26234375 3.81640625 20.3671875 C3.73261719 19.21476562 3.64882812 18.06234375 3.5625 16.875 C3.48128906 15.73804688 3.40007812 14.60109375 3.31640625 13.4296875 C3.02269035 10.2459522 2.56875687 7.14489093 2 4 C1.34 4 0.68 4 0 4 C0 2.68 0 1.36 0 0 Z " fill="#59DEF2" transform="translate(117,118)"/>
<path d="M0 0 C4.30134029 0.51768343 6.49234173 1.86405059 9.6875 4.75 C10.83798828 5.76320313 10.83798828 5.76320313 12.01171875 6.796875 C14.10301951 9.11415129 15.03672241 11.05350384 16 14 C15.01 14.33 14.02 14.66 13 15 C13 13.35 13 11.7 13 10 C12.01 10 11.02 10 10 10 C10 9.34 10 8.68 10 8 C8.35 8 6.7 8 5 8 C5 6.68 5 5.36 5 4 C4.01 3.67 3.02 3.34 2 3 C2 2.34 2 1.68 2 1 C1.34 0.67 0.68 0.34 0 0 Z " fill="#8BE7F7" transform="translate(150,70)"/>
<path d="M0 0 C1.6254308 0.14095064 3.25034051 0.28792087 4.875 0.4375 C5.77992187 0.51871094 6.68484375 0.59992188 7.6171875 0.68359375 C10 1 10 1 12 2 C12 2.99 12 3.98 12 5 C4.68292683 6.34146341 4.68292683 6.34146341 1.5 4.75 C0 3 0 3 0 0 Z " fill="#46DFF9" transform="translate(116,111)"/>
<path d="M0 0 C1.32 0.33 2.64 0.66 4 1 C4.33 2.32 4.66 3.64 5 5 C6.32 5 7.64 5 9 5 C11.625 7.4375 11.625 7.4375 14 10 C14.66 10.33 15.32 10.66 16 11 C16 11.66 16 12.32 16 13 C9.66830735 11.70119125 5.31984647 7.59267888 1 3 C0.67 2.01 0.34 1.02 0 0 Z " fill="#6BE2F1" transform="translate(74,54)"/>
<path d="M0 0 C6.93 0.495 6.93 0.495 14 1 C10.56227273 4.43772727 6.89039016 4.97127774 2.125 5.125 C1.09375 5.08375 0.0625 5.0425 -1 5 C-0.01 4.01 0.98 3.02 2 2 C1.34 1.34 0.68 0.68 0 0 Z " fill="#8EEBFB" transform="translate(90,67)"/>
<path d="M0 0 C0.66 0.33 1.32 0.66 2 1 C1.67 1.33 1.34 1.66 1 2 C2.65 2.33 4.3 2.66 6 3 C3.3139714 4.79068573 1.3373411 5.66055791 -1.6875 6.625 C-2.49574219 6.88539062 -3.30398437 7.14578125 -4.13671875 7.4140625 C-4.75160156 7.60742188 -5.36648437 7.80078125 -6 8 C-6 7.34 -6 6.68 -6 6 C-5.01 6 -4.02 6 -3 6 C-3 5.34 -3 4.68 -3 4 C-4.65 4 -6.3 4 -8 4 C-5.31143836 2.20762558 -3.0466145 1.01553817 0 0 Z " fill="#B9F2FC" transform="translate(90,69)"/>
<path d="M0 0 C1.125 3.75 1.125 3.75 0 6 C-0.19758231 8.07564676 -0.19758231 8.07564676 -0.1875 10.375 C-0.20167969 11.14585937 -0.21585937 11.91671875 -0.23046875 12.7109375 C0.02347211 15.23312977 0.82497327 16.77896908 2 19 C2.125 21.75 2.125 21.75 2 24 C0 23 0 23 -1.109375 20.84375 C-2.12678383 17.59518146 -2.26589013 14.90048678 -2.25 11.5 C-2.25515625 10.3965625 -2.2603125 9.293125 -2.265625 8.15625 C-2.00303615 5.03607666 -1.32438782 2.81695186 0 0 Z " fill="#70E4F5" transform="translate(78,121)"/>
<path d="M0 0 C1.4540625 0.0309375 1.4540625 0.0309375 2.9375 0.0625 C3.2675 1.0525 3.5975 2.0425 3.9375 3.0625 C0.9675 3.7225 -2.0025 4.3825 -5.0625 5.0625 C-3.81634615 0.07788462 -3.81634615 0.07788462 0 0 Z " fill="#43DFF7" transform="translate(76.0625,75.9375)"/>
<path d="M0 0 C3.55780196 0.60990891 6.6828589 1.5783681 10 3 C10 3.33 10 3.66 10 4 C8.35 4.33 6.7 4.66 5 5 C5.33 5.66 5.66 6.32 6 7 C3.03 6.01 0.06 5.02 -3 4 C1 3 1 3 3 4 C2.01 2.68 1.02 1.36 0 0 Z " fill="#C0F2FD" transform="translate(107,69)"/>
<path d="M0 0 C0.99 0.66 1.98 1.32 3 2 C2.75 4.375 2.75 4.375 2 7 C-0.0625 8.3125 -0.0625 8.3125 -2 9 C-2.25 3.375 -2.25 3.375 0 0 Z " fill="#4EDDF7" transform="translate(75,22)"/>
<path d="M0 0 C0.66 0.33 1.32 0.66 2 1 C1.23997083 2.31878578 0.46656347 3.6298684 -0.3125 4.9375 C-0.74175781 5.66839844 -1.17101563 6.39929688 -1.61328125 7.15234375 C-3 9 -3 9 -6 10 C-4.79157144 5.56909529 -3.48331435 3.01887244 0 0 Z " fill="#89E6F7" transform="translate(42,72)"/>
<path d="M0 0 C0.33 0.66 0.66 1.32 1 2 C-0.1196986 3.00593243 -1.2459412 4.0045849 -2.375 5 C-3.00148438 5.556875 -3.62796875 6.11375 -4.2734375 6.6875 C-6 8 -6 8 -8 8 C-7.43850643 4.74333728 -6.62770014 3.04376677 -4 1 C-1.8125 0.3125 -1.8125 0.3125 0 0 Z " fill="#6AE0F1" transform="translate(84,15)"/>
<path d="M0 0 C1.98 0 3.96 0 6 0 C6.33 2.31 6.66 4.62 7 7 C4.625 6.3125 4.625 6.3125 2 5 C0.6875 2.375 0.6875 2.375 0 0 Z " fill="#84E9F6" transform="translate(119,116)"/>
<path d="M0 0 C1.32 0 2.64 0 4 0 C4 0.66 4 1.32 4 2 C4.66 2 5.32 2 6 2 C6 2.99 6 3.98 6 5 C3.69 4.34 1.38 3.68 -1 3 C-0.67 2.01 -0.34 1.02 0 0 Z " fill="#3FDEFA" transform="translate(122,76)"/>
<path d="M0 0 C2.79872437 2.52788007 4.45773019 4.20411134 5 8 C2.525 7.01 2.525 7.01 0 6 C0 4.02 0 2.04 0 0 Z " fill="#68E2F5" transform="translate(122,21)"/>
<path d="M0 0 C-2.97 2.475 -2.97 2.475 -6 5 C-6.66 4.67 -7.32 4.34 -8 4 C-5.97675095 -0.48005146 -4.79569304 -1.43870791 0 0 Z " fill="#66E2F4" transform="translate(121,60)"/>
<path d="M0 0 C1.98 0.99 1.98 0.99 4 2 C4 2.99 4 3.98 4 5 C4.66 5 5.32 5 6 5 C5.67 6.32 5.34 7.64 5 9 C4.16094435 7.87926138 3.32892169 6.75325453 2.5 5.625 C2.0359375 4.99851562 1.571875 4.37203125 1.09375 3.7265625 C0 2 0 2 0 0 Z " fill="#9CE9F5" transform="translate(32,109)"/>
<path d="M0 0 C2.875 -0.125 2.875 -0.125 6 0 C6.66 0.66 7.32 1.32 8 2 C3.545 2.495 3.545 2.495 -1 3 C-0.67 2.01 -0.34 1.02 0 0 Z " fill="#3DDDF9" transform="translate(73,112)"/>
<path d="M0 0 C1.65 0 3.3 0 5 0 C3.1875 3 3.1875 3 1 6 C0.01 6 -0.98 6 -2 6 C-1.67 5.34 -1.34 4.68 -1 4 C-0.34 4 0.32 4 1 4 C0.67 2.68 0.34 1.36 0 0 Z " fill="#7EE7F8" transform="translate(75,116)"/>
<path d="M0 0 C0.33 1.32 0.66 2.64 1 4 C1.99 4 2.98 4 4 4 C3.34 5.65 2.68 7.3 2 9 C1.34 8.67 0.68 8.34 0 8 C0 5.36 0 2.72 0 0 Z " fill="#5BDEF4" transform="translate(72,44)"/>
<path d="M0 0 C0.66 0 1.32 0 2 0 C2 1.32 2 2.64 2 4 C1.01 4 0.02 4 -1 4 C-1.33 5.32 -1.66 6.64 -2 8 C-2.33 7.34 -2.66 6.68 -3 6 C-2.06553465 3.96855359 -1.06775224 1.96466413 0 0 Z " fill="#93EBF6" transform="translate(115,81)"/>
</svg>
