<?xml version="1.0" encoding="UTF-8"?>
<svg version="1.1" xmlns="http://www.w3.org/2000/svg" width="1024" height="1024">
<path d="M0 0 C337.92 0 675.84 0 1024 0 C1024 337.92 1024 675.84 1024 1024 C686.08 1024 348.16 1024 0 1024 C0 686.08 0 348.16 0 0 Z " fill="#F4F4F5" transform="translate(0,0)"/>
<path d="M0 0 C1.08539062 -0.01160156 2.17078125 -0.02320313 3.2890625 -0.03515625 C13.95227108 0.00301753 23.65768119 2.11834695 33.125 7.0625 C33.80240234 7.40990234 34.47980469 7.75730469 35.17773438 8.11523438 C41.03477252 11.21404864 46.11182573 14.89197171 51 19.375 C51.70511719 20.00019531 52.41023437 20.62539063 53.13671875 21.26953125 C65.68331732 33.00358819 73.48993826 50.6483006 74.21484375 67.75390625 C74.81817992 89.64796282 67.84430734 108.63248935 52.765625 124.765625 C43.46683856 133.69975315 27.87354269 144.00931323 14.625 144.5 C13.75875 144.45875 12.8925 144.4175 12 144.375 C12 145.035 12 145.695 12 146.375 C12.83402344 146.55675781 13.66804687 146.73851562 14.52734375 146.92578125 C21.17400126 148.41042983 27.58372281 150.09124032 34 152.375 C34 153.035 34 153.695 34 154.375 C36.64 154.705 39.28 155.035 42 155.375 C42 156.035 42 156.695 42 157.375 C44.97896148 158.44904734 47.97849605 159.42774394 51 160.375 C52.7015625 160.931875 52.7015625 160.931875 54.4375 161.5 C59.29445574 161.3295805 61.5376512 159.17072481 65.33203125 156.2890625 C79.65522328 146.0132732 99.09693628 143.47511528 116.21484375 145.90625 C124.10913746 147.21200986 131.60333351 149.287832 139 152.375 C139 153.035 139 153.695 139 154.375 C139.70125 154.6225 140.4025 154.87 141.125 155.125 C155.48156389 161.3669843 167.38657101 175.50813277 174 189.375 C175.60803988 193.98536209 176.89590591 198.62027223 178 203.375 C178.19335938 204.16132813 178.38671875 204.94765625 178.5859375 205.7578125 C181.39207149 223.49469716 177.81908685 243.62202622 167.75 258.5625 C158.1010146 271.40002702 147.72185971 279.89215061 133 286.375 C131.66195312 286.99955078 131.66195312 286.99955078 130.296875 287.63671875 C122.45760213 290.68889466 114.77269401 290.75942038 106.4375 290.8125 C105.30175537 290.82265137 104.16601074 290.83280273 102.99584961 290.84326172 C83.06486923 290.63851606 64.99400031 282.70269456 50.9375 268.625 C48.57961216 266.20132675 46.35764973 263.87501516 44.390625 261.125 C42.37654367 258.59042574 40.05411794 258.18943145 37 257.375 C37.639375 257.99375 38.27875 258.6125 38.9375 259.25 C39.95862841 260.29137741 40.97940827 261.33309661 42 262.375 C42.68964844 263.0453125 43.37929688 263.715625 44.08984375 264.40625 C54.03803525 274.60952334 60.26512047 288.12820875 60.3125 302.5 C60.00128142 319.92824068 54.32023658 334.27482082 42.02734375 346.64453125 C27.82551735 360.00794219 11.93531433 362.89130745 -6.69677734 362.45947266 C-21.84068275 361.904057 -34.39615219 353.41008086 -44.625 342.75 C-51.61635636 334.70565477 -56.24846648 325.8842011 -58 315.375 C-58.33 315.045 -58.66 314.715 -59 314.375 C-60.86760219 296.91410153 -57.71636143 282.33138918 -47.29296875 268.13671875 C-44.45685124 264.72081571 -41.51749226 262.06924939 -38 259.375 C-38 259.045 -38 258.715 -38 258.375 C-40.31 258.705 -42.62 259.035 -45 259.375 C-45.3403125 260.426875 -45.3403125 260.426875 -45.6875 261.5 C-49.45793191 269.75904132 -56.79419879 274.25783682 -64 279.375 C-64.65871094 279.87386719 -65.31742187 280.37273437 -65.99609375 280.88671875 C-81.24528635 291.6528525 -103.34559804 292.05230793 -121.12890625 289.984375 C-140.6520042 286.45528661 -156.90861807 274.04939374 -168.125 258.0625 C-178.253319 242.18129581 -182.01499439 221.80563492 -178.59277344 203.15576172 C-174.0369652 184.58579579 -161.77829983 167.37159057 -145.6875 157.125 C-124.04520374 144.48147501 -103.93941071 143.72011458 -80 148.375 C-80 149.035 -80 149.695 -80 150.375 C-79.14792969 150.45878906 -78.29585938 150.54257812 -77.41796875 150.62890625 C-73.40027206 151.50591204 -70.76509264 153.09498115 -67.3125 155.3125 C-66.74466797 155.67279297 -66.17683594 156.03308594 -65.59179688 156.40429688 C-63.03941176 158.029086 -60.51747134 159.69668577 -58 161.375 C-51.82672734 161.11482376 -46.58212355 158.80514091 -40.9375 156.4375 C-39.19725241 155.71850635 -37.4563815 155.00101923 -35.71484375 154.28515625 C-34.89653076 153.94871094 -34.07821777 153.61226562 -33.23510742 153.265625 C-30.5247058 152.18560915 -27.77717993 151.26766498 -25 150.375 C-22.1582849 149.32137356 -19.32233842 148.25372853 -16.48828125 147.1796875 C-14 146.375 -14 146.375 -11 146.375 C-11 145.715 -11 145.055 -11 144.375 C-11.58265625 144.36082031 -12.1653125 144.34664062 -12.765625 144.33203125 C-30.06505165 143.32561806 -44.57918163 132.298956 -56.12109375 120.140625 C-70.53595508 103.39353465 -74.41127913 83.6945942 -73.25878906 62.11621094 C-71.57960556 44.3295389 -61.18771556 28.47363636 -48.11328125 16.796875 C-33.54614715 5.36099403 -18.52733815 -0.19803568 0 0 Z " fill="#56E6FB" transform="translate(512,297.625)"/>
<path d="M0 0 C1.08539062 -0.01160156 2.17078125 -0.02320313 3.2890625 -0.03515625 C13.95227108 0.00301753 23.65768119 2.11834695 33.125 7.0625 C33.80240234 7.40990234 34.47980469 7.75730469 35.17773438 8.11523438 C41.03477252 11.21404864 46.11182573 14.89197171 51 19.375 C51.70511719 20.00019531 52.41023437 20.62539063 53.13671875 21.26953125 C65.68331732 33.00358819 73.48993826 50.6483006 74.21484375 67.75390625 C74.81817992 89.64796282 67.84430734 108.63248935 52.765625 124.765625 C43.10235641 134.04994188 28.56755182 143.53929874 14.8125 143.625 C13.554375 143.5425 12.29625 143.46 11 143.375 C11 144.035 11 144.695 11 145.375 C-13.72161821 145.81471258 -32.96949916 142.33252922 -51.66015625 124.734375 C-67.53290303 108.7291345 -73.54679397 90.21204313 -73.49267578 67.99291992 C-72.98889314 48.96339109 -64.29510662 32.70932522 -51 19.375 C-36.25108734 6.20276406 -19.68799206 -0.21044172 0 0 Z " fill="#3CE2FC" transform="translate(512,297.625)"/>
<path d="M0 0 C10.96997324 8.77597859 19.90064253 21.97625984 21.7734375 36.21875 C22.94715062 53.84503833 19.49305474 69.26535637 8.01342773 82.98974609 C-0.95262936 93.1152486 -13.67981366 101.23264298 -27.2265625 103.21875 C-45.82039535 104.17664021 -61.1975574 102.5006837 -76.07421875 90.1796875 C-86.35492474 80.81323667 -93.90867301 70.12608696 -96.2265625 56.21875 C-96.5565625 55.88875 -96.8865625 55.55875 -97.2265625 55.21875 C-99.07210794 37.96406824 -96.09460157 23.15513138 -85.6640625 9.15625 C-63.67267312 -17.34619361 -26.96087935 -19.97102174 0 0 Z " fill="#34E0FC" transform="translate(550.2265625,556.78125)"/>
<path d="M0 0 C4.42957541 2.02126256 8.91620344 3.89891457 13.40625 5.78125 C14.26951904 6.14323486 15.13278809 6.50521973 16.0222168 6.87817383 C18.08721485 7.74293461 20.15269151 8.60652649 22.21875 9.46875 C19.90310794 13.60853023 17.50725779 17.52184629 14.78125 21.40625 C10.35464701 28.26034495 8.32478185 35.66250797 6.21875 43.46875 C6.03844238 44.12262695 5.85813477 44.77650391 5.67236328 45.45019531 C3.24845862 56.2364406 4.26860132 72.70852884 9.3203125 82.6328125 C10.21875 84.46875 10.21875 84.46875 10.21875 88.46875 C2.22139831 88.06540531 -5.51254393 87.13668798 -13.33959961 85.48510742 C-25.22352257 83.14588903 -36.74964134 84.99632338 -48.53125 86.96875 C-50.01808897 87.21049924 -51.50506776 87.45139022 -52.9921875 87.69140625 C-56.59020345 88.27399385 -60.18620229 88.86808437 -63.78125 89.46875 C-63.12765851 84.65482428 -62.21584621 80.49391102 -60.5 75.97265625 C-55.21480307 57.56063868 -59.24378057 38.01456137 -67.96484375 21.4765625 C-70.23135991 17.72340671 -72.83582344 14.70153525 -75.78125 11.46875 C-75.78125 10.47875 -75.78125 9.48875 -75.78125 8.46875 C-74.82605469 8.16582031 -73.87085938 7.86289062 -72.88671875 7.55078125 C-65.85954953 5.28627848 -59.14303959 2.83161801 -52.46484375 -0.34375 C-48.61514423 -2.04725605 -44.64765945 -3.28080834 -40.63671875 -4.546875 C-37.26214494 -5.71020277 -34.15333 -7.20771802 -31.01171875 -8.89453125 C-21.46911391 -11.61860233 -8.49981348 -3.99388826 0 0 Z " fill="#DFF4F6" transform="translate(538.78125,457.53125)"/>
<path d="M0 0 C2.31 0 4.62 0 7 0 C7 0.33 7 0.66 7 1 C5.02 1 3.04 1 1 1 C1 1.66 1 2.32 1 3 C1.83402344 3.18175781 2.66804687 3.36351562 3.52734375 3.55078125 C10.17400126 5.03542983 16.58372281 6.71624032 23 9 C23 9.66 23 10.32 23 11 C25.64 11.33 28.28 11.66 31 12 C31 12.66 31 13.32 31 14 C40.09706315 17.70990757 40.09706315 17.70990757 49.4375 17.0625 C49.953125 16.711875 50.46875 16.36125 51 16 C48.77519366 19.39575704 46.5379977 21.05410126 43 23 C39.75150023 24.72226496 39.75150023 24.72226496 39 28 C37.15825792 27.07912896 35.32849614 26.13439979 33.5 25.1875 C29.61648519 23.24224393 25.65451989 21.63374865 21.609375 20.05859375 C19.00267622 19.00108571 16.47886629 17.83022371 13.9375 16.625 C9.11246095 14.42241441 4.22157393 12.46711932 -0.75 10.625 C-1.45906494 10.34994629 -2.16812988 10.07489258 -2.89868164 9.79150391 C-9.12569545 7.54502649 -14.19960096 7.97722829 -20.3125 10.625 C-25.17853629 12.66679777 -30.07777638 14.59879428 -35 16.5 C-39.93874343 18.40915377 -44.85947104 20.34468949 -49.75 22.375 C-53.15351103 23.76226875 -56.35989689 24.43998414 -60 25 C-60.33 25.66 -60.66 26.32 -61 27 C-61 26.34 -61 25.68 -61 25 C-61.598125 24.7525 -62.19625 24.505 -62.8125 24.25 C-65.29482087 22.83153093 -66.36328035 21.30735262 -68 19 C-63.79252383 17.37277451 -59.5838712 15.74861344 -55.375 14.125 C-54.18519531 13.66480469 -52.99539063 13.20460938 -51.76953125 12.73046875 C-50.03896484 12.06337891 -50.03896484 12.06337891 -48.2734375 11.3828125 C-47.21560059 10.97434082 -46.15776367 10.56586914 -45.06787109 10.14501953 C-42.0656635 9.02450754 -39.04349685 8.00197427 -36 7 C-33.1582849 5.94637356 -30.32233842 4.87872853 -27.48828125 3.8046875 C-25 3 -25 3 -22 3 C-22 2.34 -22 1.68 -22 1 C-11.11 1.495 -11.11 1.495 0 2 C0 1.34 0 0.68 0 0 Z " fill="#88EAF8" transform="translate(523,441)"/>
<path d="M0 0 C2.16330468 0.37934727 4.32735171 0.75449021 6.4921875 1.125 C7.43175293 1.29257812 8.37131836 1.46015625 9.33935547 1.6328125 C12.64813401 2.13068377 12.64813401 2.13068377 18.125 2 C19.775 5.63 21.425 9.26 23.125 13 C17.77933153 13.85044726 15.03237369 12.58179469 10.4375 9.75 C-3.68226374 1.1772863 -19.15111129 -0.40840227 -35.3125 3.0625 C-41.0575726 4.77449871 -46.29589326 7.54090054 -51.55078125 10.37890625 C-55.0464401 12.08360475 -58.09046619 13.14721224 -61.875 14 C-62.535 13.67 -63.195 13.34 -63.875 13 C-63.08390398 11.72881136 -62.29209922 10.45806377 -61.5 9.1875 C-61.05914062 8.47980469 -60.61828125 7.77210938 -60.1640625 7.04296875 C-59.09311524 5.34567961 -57.98823761 3.66985642 -56.875 2 C-56.545 2.33 -56.215 2.66 -55.875 3 C-53.7139522 2.73036922 -51.56265676 2.38224699 -49.41796875 2.00390625 C-48.06318918 1.77256299 -46.70837005 1.54145131 -45.35351562 1.31054688 C-43.22499339 0.94109779 -41.09708458 0.56863734 -38.9699707 0.19116211 C-25.46430879 -2.1906905 -13.55247091 -2.42828777 0 0 Z " fill="#85EAF8" transform="translate(531.875,543)"/>
<path d="M0 0 C1 3 1 3 -0.4375 6.4375 C-4.7303013 12.22238608 -13.33532017 12.72988684 -20 14 C-20.90234375 14.1959375 -21.8046875 14.391875 -22.734375 14.59375 C-26.21384967 15.2176558 -29.46769633 15.11774346 -33 15 C-34 14 -34 14 -34.0625 10.4375 C-34.041875 9.303125 -34.02125 8.16875 -34 7 C-27.14894912 4.82150834 -20.12795329 3.6495233 -13.0625 2.375 C-11.80630859 2.14554688 -10.55011719 1.91609375 -9.25585938 1.6796875 C-6.17112284 1.11669376 -3.08584211 0.55689633 0 0 Z " fill="#3EDEF9" transform="translate(472,547)"/>
<path d="M0 0 C4.16806329 -0.20840316 7.63016388 0.38133086 11.65039062 1.42529297 C16.06320313 2.50465297 20.53507846 3.29360082 25 4.125 C26.44826172 4.39763672 26.44826172 4.39763672 27.92578125 4.67578125 C30.28346527 5.11930597 32.64153231 5.56066505 35 6 C35.125 11.75 35.125 11.75 34 14 C27.06425166 13.69446043 20.34470234 12.60712614 13.5625 11.1875 C12.78148926 11.03442383 12.00047852 10.88134766 11.19580078 10.72363281 C6.71482234 9.74338845 3.85513312 8.84373218 1 5 C0.25 2.25 0.25 2.25 0 0 Z " fill="#41E0FA" transform="translate(552,548)"/>
<path d="M0 0 C3.31996029 1.04155617 6.21601912 2.39173274 9.28515625 4.01171875 C11.52674595 5.17624071 13.82352397 6.11350899 16.1875 7 C15.8575 8.98 15.5275 10.96 15.1875 13 C9.89725594 14.97172029 5.76897825 12.61356744 0.875 10.5625 C0.03904297 10.22412109 -0.79691406 9.88574219 -1.65820312 9.53710938 C-3.7146154 8.70279354 -5.76541783 7.85689595 -7.8125 7 C-7.8125 4 -7.8125 4 -5.6875 1.75 C-2.8125 0 -2.8125 0 0 0 Z " fill="#3CDEF9" transform="translate(570.8125,461)"/>
<path d="M0 0 C1.75 2.125 1.75 2.125 3 4 C-11.93852459 13 -11.93852459 13 -19 13 C-20.76462683 9.91190305 -21 8.76687864 -21 5 C-18.25722453 3.77233849 -15.50787501 2.567837 -12.75 1.375 C-11.97269531 1.024375 -11.19539063 0.67375 -10.39453125 0.3125 C-9.64042969 -0.00976562 -8.88632812 -0.33203125 -8.109375 -0.6640625 C-7.41811523 -0.96779785 -6.72685547 -1.2715332 -6.01464844 -1.58447266 C-3.33501633 -2.1371549 -2.25136677 -1.47816411 0 0 Z " fill="#39DEF9" transform="translate(458,463)"/>
<path d="M0 0 C0 0.33 0 0.66 0 1 C-16.17 1 -32.34 1 -49 1 C-49 0.67 -49 0.34 -49 0 C-31.71144776 -2.89339569 -17.21309044 -3.42630236 0 0 Z " fill="#9BECF8" transform="translate(536,544)"/>
<path d="M0 0 C5.89307312 1.20920907 8.4384226 2.91375813 12.4375 7.625 C12.88287109 8.140625 13.32824219 8.65625 13.78710938 9.1875 C14.87155105 10.44685163 15.93774708 11.72187677 17 13 C11 13 11 13 9.31640625 11.35546875 C8.73761719 10.64003906 8.15882813 9.92460938 7.5625 9.1875 C5.72257555 6.92772701 4.12983336 5.09560664 1.77734375 3.36328125 C1.19082031 2.91339844 0.60429688 2.46351563 0 2 C0 1.34 0 0.68 0 0 Z " fill="#C6F6FC" transform="translate(549,555)"/>
<path d="M0 0 C0 3 0 3 -1.42578125 4.5 C-2.04839844 4.995 -2.67101562 5.49 -3.3125 6 C-5.67486744 7.90178008 -7.89016786 9.81875816 -10 12 C-11 9 -11 9 -9.5 5.4375 C-7.77937092 2.56574583 -6.47706533 1.46765247 -3.25 0.5625 C-2.1775 0.376875 -1.105 0.19125 0 0 Z " fill="#CEF5FA" transform="translate(474,555)"/>
<path d="M0 0 C0.66 0.33 1.32 0.66 2 1 C1.28714844 1.70125 0.57429688 2.4025 -0.16015625 3.125 C-5.66651948 8.56978587 -11.0160937 14.06353823 -16 20 C-16 14.33172632 -10.64936884 10.05357108 -7 6 C-4.74173143 3.84809915 -2.45410316 1.93195355 0 0 Z " fill="#61E4F9" transform="translate(467,312)"/>
<path d="M0 0 C0.66 0.33 1.32 0.66 2 1 C-3.61 6.61 -9.22 12.22 -15 18 C-15 13.92412524 -13.74008328 13.01409161 -11 10 C-9.00075834 8.17373096 -6.96715173 6.40015559 -4.90234375 4.6484375 C-3.18778129 3.16271808 -1.58115759 1.62548911 0 0 Z M-18 18 C-17.01 18.495 -17.01 18.495 -16 19 C-16.99 19.495 -16.99 19.495 -18 20 C-18 19.34 -18 18.68 -18 18 Z " fill="#E3F3F5" transform="translate(414,377)"/>
<path d="M0 0 C0.66 0.33 1.32 0.66 2 1 C-2 5 -6 9 -10 13 C-10.66 12.67 -11.32 12.34 -12 12 C-8.32167983 7.47384007 -4.58913637 3.60575001 0 0 Z " fill="#51E0F7" transform="translate(477,554)"/>
<path d="M0 0 C0 3.77910478 -0.99703962 4.46106101 -3.5 7.1875 C-4.47453125 8.26064453 -4.47453125 8.26064453 -5.46875 9.35546875 C-5.9740625 9.89816406 -6.479375 10.44085938 -7 11 C-7 7.22089522 -6.00296038 6.53893899 -3.5 3.8125 C-2.8503125 3.09707031 -2.200625 2.38164062 -1.53125 1.64453125 C-1.0259375 1.10183594 -0.520625 0.55914062 0 0 Z " fill="#74E4F6" transform="translate(354,465)"/>
<path d="M0 0 C3.3 0.33 6.6 0.66 10 1 C10 1.66 10 2.32 10 3 C8.35 3.33 6.7 3.66 5 4 C5 3.34 5 2.68 5 2 C3.35 1.67 1.7 1.34 0 1 C0 0.67 0 0.34 0 0 Z " fill="#D0F6FA" transform="translate(491,441)"/>
</svg>
